<mxfile host="app.diagrams.net" agent="Mozilla/5.0 (Windows NT 10.0; Win64; x64) AppleWebKit/537.36 (KHTML, like Gecko) Chrome/135.0.0.0 Safari/537.36" version="26.2.9">
  <diagram name="Страница — 1" id="Wlse4yZ6uKAMrqJHGbDn">
    <mxGraphModel dx="1144" dy="594" grid="1" gridSize="10" guides="1" tooltips="1" connect="1" arrows="1" fold="1" page="1" pageScale="1" pageWidth="827" pageHeight="1169" math="0" shadow="0">
      <root>
        <mxCell id="0" />
        <mxCell id="1" parent="0" />
        <mxCell id="a0E9nNrhHoLiNDshmegc-1" value="" style="ellipse;fillColor=strokeColor;html=1;" parent="1" vertex="1">
          <mxGeometry x="270" y="20" width="30" height="30" as="geometry" />
        </mxCell>
        <mxCell id="a0E9nNrhHoLiNDshmegc-2" value="State" style="html=1;align=center;verticalAlign=top;rounded=1;absoluteArcSize=1;arcSize=10;dashed=0;whiteSpace=wrap;" parent="1" vertex="1">
          <mxGeometry x="110" y="90" width="530" height="350" as="geometry" />
        </mxCell>
        <mxCell id="a0E9nNrhHoLiNDshmegc-4" value="" style="endArrow=open;startArrow=none;endFill=0;startFill=0;endSize=8;html=1;verticalAlign=bottom;labelBackgroundColor=none;strokeWidth=1;rounded=0;exitX=0.5;exitY=1;exitDx=0;exitDy=0;entryX=0.331;entryY=0.008;entryDx=0;entryDy=0;entryPerimeter=0;" parent="1" source="a0E9nNrhHoLiNDshmegc-1" target="a0E9nNrhHoLiNDshmegc-2" edge="1">
          <mxGeometry width="160" relative="1" as="geometry">
            <mxPoint x="270" y="49.99826086956526" as="sourcePoint" />
            <mxPoint x="290" y="87" as="targetPoint" />
          </mxGeometry>
        </mxCell>
        <mxCell id="a0E9nNrhHoLiNDshmegc-5" value="Text" style="text;html=1;align=center;verticalAlign=middle;resizable=0;points=[];autosize=1;strokeColor=none;fillColor=none;" parent="1" vertex="1">
          <mxGeometry x="285" y="48" width="50" height="30" as="geometry" />
        </mxCell>
      </root>
    </mxGraphModel>
  </diagram>
</mxfile>
